<?xml version="1.0" encoding="UTF-8" ?>
<!DOCTYPE svg PUBLIC "-//W3C//DTD SVG 1.1//EN" "http://www.w3.org/Graphics/SVG/1.1/DTD/svg11.dtd">
<svg width="1251pt" height="1251pt" viewBox="0 0 1251 1251" version="1.1" xmlns="http://www.w3.org/2000/svg">
<g id="#2494c4ff">
<path fill="#2494c4" opacity="1.00" d=" M 56.41 0.00 L 723.67 0.00 C 728.64 0.29 733.46 2.41 736.93 6.00 C 814.79 83.85 892.61 161.73 970.52 239.53 C 974.42 243.24 976.83 248.49 976.79 253.91 C 976.82 303.27 976.79 352.64 976.80 402.00 C 976.68 428.49 977.03 455.02 976.63 481.49 C 963.95 505.65 950.63 529.52 937.65 553.54 C 937.64 460.19 937.66 366.85 937.65 273.50 C 868.11 273.50 798.57 273.50 729.03 273.50 C 724.57 273.46 719.91 273.93 715.69 272.19 C 708.39 269.43 703.18 261.96 703.26 254.14 C 703.23 182.48 703.26 110.81 703.25 39.15 C 488.48 39.14 273.71 39.16 58.94 39.14 C 51.25 38.94 43.79 43.77 40.78 50.84 C 38.56 55.58 39.23 60.93 39.15 66.00 C 39.14 441.01 39.16 816.02 39.14 1191.03 C 38.66 1201.69 48.22 1211.38 58.90 1210.95 C 345.29 1210.95 631.68 1210.95 918.07 1210.95 C 928.33 1211.26 937.66 1202.22 937.63 1191.96 C 937.67 1111.66 937.65 1031.35 937.64 951.05 C 937.76 948.29 937.06 945.27 938.57 942.77 C 951.42 919.50 964.00 896.09 976.75 872.76 C 976.75 974.18 976.75 1075.61 976.75 1177.03 C 976.54 1185.96 977.47 1195.01 975.47 1203.81 C 971.91 1220.81 960.28 1235.83 944.80 1243.68 C 936.26 1248.12 926.61 1250.11 917.04 1250.26 C 639.02 1250.24 361.00 1250.25 82.98 1250.25 C 72.96 1250.04 62.90 1250.71 52.90 1249.81 C 35.68 1248.21 19.51 1238.47 9.95 1224.08 C 3.87 1215.12 0.51 1204.45 0.00 1193.66 L 0.00 56.73 C 0.52 41.77 6.93 27.11 17.71 16.71 C 27.96 6.59 42.03 0.61 56.41 0.00 M 742.35 66.78 C 742.35 122.66 742.35 178.53 742.35 234.40 C 798.22 234.40 854.09 234.40 909.97 234.40 C 854.10 178.52 798.23 122.65 742.35 66.78 Z" />
<path fill="#2494c4" opacity="1.00" d=" M 173.27 235.31 C 201.85 234.93 230.45 235.26 259.04 235.15 C 361.34 235.14 463.65 235.16 565.96 235.14 C 572.68 234.89 579.34 238.39 582.95 244.06 C 587.06 250.24 587.14 258.78 583.15 265.03 C 579.59 270.84 572.86 274.49 566.05 274.26 C 436.04 274.24 306.04 274.25 176.03 274.25 C 169.49 274.39 163.05 270.94 159.50 265.45 C 155.62 259.67 155.23 251.78 158.50 245.64 C 161.37 240.08 167.05 236.07 173.27 235.31 Z" />
<path fill="#2494c4" opacity="1.00" d=" M 174.38 352.41 C 380.24 352.27 586.11 352.39 791.97 352.35 C 797.42 352.56 803.14 351.57 808.32 353.77 C 816.57 356.97 821.82 366.24 820.26 374.96 C 818.99 384.18 810.35 391.64 801.02 391.44 C 592.70 391.46 384.37 391.44 176.05 391.45 C 169.70 391.58 163.44 388.36 159.83 383.14 C 155.78 377.48 155.15 369.60 158.24 363.36 C 161.17 357.20 167.55 352.80 174.38 352.41 Z" />
<path fill="#2494c4" opacity="1.00" d=" M 174.45 469.58 C 382.99 469.39 591.53 469.56 800.07 469.49 C 810.47 468.84 820.25 477.66 820.48 488.12 C 821.31 498.85 811.83 508.87 801.07 508.63 C 596.39 508.67 391.70 508.64 187.01 508.65 C 181.99 508.49 176.93 509.04 171.96 508.25 C 162.64 506.55 155.53 497.32 156.33 487.87 C 156.70 478.37 164.94 470.02 174.45 469.58 Z" />
<path fill="#2494c4" opacity="1.00" d=" M 169.45 587.77 C 171.55 587.02 173.78 586.72 176.00 586.70 C 382.33 586.70 588.67 586.70 795.00 586.70 C 799.56 586.71 804.36 586.30 808.63 588.27 C 815.64 591.17 820.53 598.45 820.51 606.05 C 820.71 614.10 815.36 621.88 807.79 624.59 C 804.34 625.99 800.58 625.83 796.95 625.81 C 589.62 625.77 382.29 625.84 174.96 625.77 C 164.32 625.65 155.29 615.45 156.34 604.89 C 156.76 597.23 162.19 590.20 169.45 587.77 Z" />
<path fill="#2494c4" opacity="1.00" d=" M 170.39 704.65 C 174.15 703.55 178.11 703.95 181.97 703.90 C 313.31 703.89 444.65 703.90 575.98 703.89 C 582.70 703.71 589.33 707.32 592.86 713.03 C 596.71 719.02 596.85 727.13 593.23 733.25 C 589.80 739.28 582.99 743.18 576.04 743.00 C 444.69 743.00 313.35 743.00 182.00 743.00 C 177.44 742.96 172.66 743.44 168.38 741.54 C 161.04 738.60 155.97 730.87 156.30 722.95 C 156.36 714.63 162.39 706.86 170.39 704.65 Z" />
</g>
<g id="#48484aff">
<path fill="#48484a" opacity="1.00" d=" M 1204.32 206.24 C 1207.80 199.91 1214.70 195.71 1221.90 195.37 C 1228.67 194.94 1235.54 197.94 1239.85 203.17 C 1244.24 208.39 1245.93 215.73 1244.26 222.35 C 1243.43 225.81 1241.50 228.84 1239.84 231.94 C 1232.91 244.69 1225.97 257.43 1219.05 270.17 C 1224.97 273.80 1231.89 276.07 1236.85 281.09 C 1243.12 287.64 1244.60 298.23 1240.23 306.21 C 1233.29 319.02 1226.34 331.83 1219.35 344.61 C 1230.22 361.17 1238.16 379.58 1243.66 398.58 C 1248.76 417.13 1251.59 436.62 1249.44 455.84 C 1247.89 471.82 1243.20 487.51 1235.53 501.63 C 1201.74 563.82 1167.95 626.01 1134.16 688.20 C 1132.40 691.36 1130.89 694.73 1128.39 697.39 C 1123.78 702.39 1116.71 704.98 1109.96 704.14 C 1102.71 703.34 1096.03 698.63 1092.90 692.05 C 1089.73 685.67 1090.03 677.79 1093.60 671.64 C 1128.01 608.36 1162.40 545.05 1196.82 481.76 C 1204.39 468.24 1207.25 452.45 1206.32 437.07 C 1205.40 420.94 1200.89 405.19 1194.56 390.39 C 1153.67 465.56 1112.86 540.77 1071.99 615.95 C 1040.13 598.66 1008.26 581.37 976.41 564.05 C 1030.92 463.69 1085.46 363.34 1139.99 262.99 C 1142.94 258.03 1144.92 252.26 1149.45 248.43 C 1155.54 243.10 1164.71 241.62 1172.15 244.84 C 1175.14 246.17 1177.93 247.90 1180.83 249.43 C 1188.69 235.04 1196.46 220.62 1204.32 206.24 Z" />
<path fill="#48484a" opacity="1.00" d=" M 837.82 818.81 C 877.20 746.39 916.57 673.96 955.95 601.55 C 987.82 618.89 1019.72 636.18 1051.59 653.52 C 1010.61 728.90 969.65 804.29 928.66 879.67 C 920.17 895.04 912.35 910.83 902.23 925.22 C 884.89 950.08 863.90 972.15 841.96 992.97 C 819.38 1014.23 795.54 1034.13 770.74 1052.74 C 769.55 1053.61 768.36 1054.52 766.99 1055.08 C 747.64 1062.24 728.00 1068.65 708.04 1073.89 C 686.12 1079.56 663.68 1083.86 640.98 1084.19 C 626.33 1084.32 611.41 1082.73 597.69 1077.32 C 586.95 1073.07 577.05 1066.17 570.25 1056.75 C 565.51 1050.23 563.34 1042.02 564.04 1034.01 C 565.04 1021.10 570.67 1008.97 570.90 995.95 C 563.40 996.72 556.87 1000.87 550.43 1004.47 C 523.51 1020.78 499.44 1041.22 474.94 1060.85 C 460.06 1072.36 444.64 1083.43 427.62 1091.59 C 418.65 1095.70 408.97 1099.40 398.92 1098.77 C 391.64 1098.37 384.65 1094.19 381.19 1087.72 C 376.86 1079.69 376.17 1070.18 377.22 1061.25 C 378.90 1048.17 384.16 1035.87 390.25 1024.29 C 397.05 1011.47 405.16 999.40 413.33 987.43 C 421.16 976.18 428.33 964.48 436.48 953.44 C 442.65 944.02 449.96 934.41 451.19 922.86 C 444.21 923.69 437.71 926.57 431.30 929.28 C 415.90 936.12 401.07 944.14 386.43 952.45 C 365.00 964.30 345.81 979.63 326.43 994.47 C 292.27 1021.02 258.71 1048.89 220.41 1069.39 C 208.60 1075.52 196.54 1081.97 183.15 1083.71 C 172.16 1085.28 159.99 1083.93 151.06 1076.81 C 144.17 1071.46 140.62 1062.63 140.81 1054.02 C 140.98 1042.20 146.21 1031.20 152.22 1021.28 C 165.99 998.52 184.02 978.10 205.96 962.92 C 223.40 950.89 243.77 942.50 265.05 941.11 C 268.03 940.83 271.57 942.07 272.63 945.12 C 273.81 948.29 271.80 951.45 269.94 953.89 C 265.70 959.09 260.25 963.27 254.30 966.33 C 250.05 968.73 244.97 968.10 240.44 969.61 C 226.70 973.56 214.46 981.52 203.66 990.71 C 192.52 1000.44 182.53 1012.07 176.99 1025.95 C 173.59 1034.65 172.15 1044.93 176.28 1053.64 C 178.61 1058.52 184.65 1059.63 189.51 1058.76 C 201.40 1056.76 211.96 1050.43 222.01 1044.09 C 267.40 1013.91 309.25 978.78 354.60 948.52 C 365.17 941.39 376.10 934.80 386.83 927.91 C 403.34 917.55 420.19 907.51 438.33 900.24 C 448.10 896.51 458.49 893.08 469.09 894.16 C 475.57 894.89 482.79 898.39 484.62 905.16 C 486.36 912.32 483.71 919.59 481.02 926.16 C 470.54 950.02 453.09 969.78 440.18 992.23 C 430.58 1008.42 421.26 1024.94 414.92 1042.73 C 412.69 1049.72 410.18 1057.19 411.73 1064.60 C 412.42 1068.35 416.49 1069.98 419.93 1069.90 C 429.29 1069.96 437.92 1065.52 445.64 1060.65 C 462.37 1049.75 476.26 1035.26 490.96 1021.89 C 497.37 1015.96 504.28 1010.61 511.10 1005.16 C 525.82 993.52 541.15 982.46 558.04 974.16 C 565.59 970.51 573.53 967.39 581.87 966.18 C 587.53 965.40 593.89 965.69 598.57 969.37 C 603.25 973.04 605.33 979.22 604.97 985.04 C 604.51 995.91 598.84 1005.57 596.63 1016.06 C 595.34 1025.97 599.12 1036.64 606.99 1042.98 C 614.89 1049.46 625.14 1052.12 635.08 1053.45 C 652.42 1055.57 669.97 1054.02 687.20 1051.59 C 710.49 1048.15 733.40 1042.52 756.06 1036.17 C 760.76 1034.84 765.54 1033.80 770.32 1032.77 C 775.36 994.13 782.48 955.67 793.39 918.23 C 799.23 898.44 806.16 878.91 815.38 860.43 C 822.59 846.41 830.37 832.70 837.82 818.81 Z" />
</g>
</svg>
